HIERARCHY
ROOT Hips
{
  OFFSET 265.287 66.7526 -254.649
  CHANNELS 6 Xposition Yposition Zposition Zrotation Xrotation Yrotation
  JOINT LeftUpLeg
  {
    OFFSET 8.64259 1.95398 -2.38835
    CHANNELS 3 Zrotation Xrotation Yrotation
    JOINT LeftLeg
    {
      OFFSET 43.7702 0 0
      CHANNELS 3 Zrotation Xrotation Yrotation
      JOINT LeftFoot
      {
        OFFSET 40.6238 0 0
        CHANNELS 3 Zrotation Xrotation Yrotation
        JOINT LeftToeBase
        {
          OFFSET 12.7242 0 0
          CHANNELS 3 Zrotation Xrotation Yrotation
          End Site
          {
            OFFSET 0 0 0
          }
        }
      }
    }
  }
  JOINT RightUpLeg
  {
    OFFSET -8.2249 1.95398 -2.59336
    CHANNELS 3 Zrotation Xrotation Yrotation
    JOINT RightLeg
    {
      OFFSET 43.5653 0 0
      CHANNELS 3 Zrotation Xrotation Yrotation
      JOINT RightFoot
      {
        OFFSET 40.6238 0 0
        CHANNELS 3 Zrotation Xrotation Yrotation
        JOINT RightToeBase
        {
          OFFSET 12.7242 0 0
          CHANNELS 3 Zrotation Xrotation Yrotation
          End Site
          {
            OFFSET 0 0 0
          }
        }
      }
    }
  }
  JOINT Spine
  {
    OFFSET 0.165834 0.87714 6.61349
    CHANNELS 3 Zrotation Xrotation Yrotation
    JOINT Spine1
    {
      OFFSET 7.38963 1.71661e-005 0
      CHANNELS 3 Zrotation Xrotation Yrotation
      JOINT Spine2
      {
        OFFSET 11.9445 1.14441e-005 0
        CHANNELS 3 Zrotation Xrotation Yrotation
        JOINT Spine3
        {
          OFFSET 14.7254 4.19617e-005 0
          CHANNELS 3 Zrotation Xrotation Yrotation
          JOINT Spine4
          {
            OFFSET 10.9679 0 0
            CHANNELS 3 Zrotation Xrotation Yrotation
            JOINT RightShoulder
            {
              OFFSET 2.46616 -1.6653 3.69651
              CHANNELS 3 Zrotation Xrotation Yrotation
              JOINT RightArm
              {
                OFFSET 13.0012 0 0
                CHANNELS 3 Zrotation Xrotation Yrotation
                JOINT RightForeArm
                {
                  OFFSET 28.7848 1.52588e-005 0
                  CHANNELS 3 Zrotation Xrotation Yrotation
                  JOINT RightHand
                  {
                    OFFSET 26.5688 1.52588e-005 0
                    CHANNELS 3 Zrotation Xrotation Yrotation
                    End Site
                    {
                      OFFSET 0 0 0
                    }
                  }
                }
              }
            }
            JOINT LeftShoulder
            {
              OFFSET 2.38034 -1.29275 -3.7523
              CHANNELS 3 Zrotation Xrotation Yrotation
              JOINT LeftArm
              {
                OFFSET 16.3182 6.10351e-005 0
                CHANNELS 3 Zrotation Xrotation Yrotation
                JOINT LeftForeArm
                {
                  OFFSET 27.0901 0 0
                  CHANNELS 3 Zrotation Xrotation Yrotation
                  JOINT LeftHand
                  {
                    OFFSET 24.5451 1.52588e-005 0
                    CHANNELS 3 Zrotation Xrotation Yrotation
                    End Site
                    {
                      OFFSET 0 0 0
                    }
                  }
                }
              }
            }
            JOINT Neck
            {
              OFFSET 5.0226 -0.0266342 0
              CHANNELS 3 Zrotation Xrotation Yrotation
              JOINT Head
              {
                OFFSET 6.69364 2.86102e-005 0
                CHANNELS 3 Zrotation Xrotation Yrotation
                End Site
                {
                  OFFSET 0 0 0
                }
              }
            }
          }
        }
      }
    }
  }
}
MOTION
Frames:	10
Frame Time:	0.0416667
-293.449 65.3717 334.982 -92.6398 -33.6982 -89.8059 -167.996 32.3444 90.9596 -98.1363 21.1284 -1.79011 118.678 41.5535 20.1451 2.08058 15.3096 -16.428 -176.916 52.0293 95.5145 -95.1994 -14.8732 -1.80832 122.905 -27.5052 10.8156 -74.6049 19.4207 3.10514 0.0468178 5.53599 -90.3526 15.8111 -0.0887546 -0.696014 4.14021 -0.116872 -0.69159 -18.3947 0.129631 -0.689386 1.61789 0.129638 -0.68939 72.5407 -41.0063 -131.912 36.4203 21.0782 -2.70298 -25.0236 -23.0425 -50.4419 13.7641 9.97578 64.3963 -127.173 -66.813 36.6788 -15.1821 -22.8444 32.978 25.5131 22.3869 -29.0169 -1.95937 -0.0922632 -4.19482 -79.2498 17.9037 13.5343 100.17 35.3186 6.30948 
-293.556 65.3803 335.138 -92.6478 -33.7285 -89.7487 -168.14 32.7053 91.1251 -98.1662 21.4857 -1.79447 118.289 41.4278 20.3221 2.33081 15.6831 -17.618 -176.911 52.0673 95.4974 -95.1417 -15.3611 -1.80204 123.413 -27.8351 11.0723 -78.746 18.8986 4.44323 0.0477064 5.53558 -90.359 15.8111 -0.0887543 -0.708797 4.14017 -0.117781 -0.704317 -18.3947 0.1307 -0.702027 1.61793 0.130713 -0.702033 72.5234 -40.9099 -131.996 36.437 21.1894 -2.45127 -25.1347 -22.9439 -50.7254 13.8553 10.0354 64.3744 -127.178 -66.787 36.6592 -15.183 -22.6674 32.9171 25.4122 22.3799 -29.0588 -2.48099 -0.0922617 -4.20772 -79.2576 17.9026 13.4795 100.196 35.3348 6.34965 
-293.863 65.409 335.586 -92.6706 -33.8166 -89.5817 -168.566 33.7407 91.6133 -98.2235 22.4623 -1.80489 117.164 41.0314 20.808 3.23714 16.7224 -21.2384 -176.933 52.2117 95.4961 -95.0006 -16.812 -1.78343 124.625 -28.8018 11.5957 -89.5162 16.2115 8.15106 0.0502904 5.53435 -90.3775 15.811 -0.0908801 -0.745556 4.14002 -0.123526 -0.740842 -18.3945 0.137471 -0.738368 1.6181 0.137481 -0.738376 72.4727 -40.6346 -132.24 36.4824 21.5121 -1.7224 -25.4527 -22.6581 -51.5439 14.1166 10.2055 64.3078 -127.192 -66.71 36.6037 -15.1821 -22.1586 32.7433 25.1295 22.3733 -29.184 -3.98707 -0.092256 -4.25514 -79.2783 17.8998 13.3192 100.271 35.3788 6.46325 
-294.351 65.4628 336.292 -92.7065 -33.958 -89.312 -169.276 35.3709 92.4124 -98.2383 23.8554 -1.81312 115.366 40.3076 21.5135 5.26807 18.1766 -27.555 -177.065 52.5374 95.6256 -94.8553 -19.293 -1.75319 125.837 -30.4299 11.7821 -102.674 8.67445 12.9958 0.0543706 5.53229 -90.4067 15.8108 -0.0974435 -0.803605 4.13977 -0.132731 -0.798536 -18.3942 0.148554 -0.79574 1.6184 0.148565 -0.795743 72.3945 -40.2069 -132.621 36.5456 22.0266 -0.564823 -25.9478 -22.2039 -52.8399 14.526 10.4692 64.1932 -127.206 -66.5816 36.52 -15.1726 -21.3546 32.4713 24.7095 22.41 -29.4009 -6.39217 -0.0907537 -4.36522 -79.3045 17.8959 13.0588 100.394 35.4413 6.63852 
-294.998 65.5408 337.219 -92.7539 -34.1485 -88.9466 -170.283 37.4989 93.52 -98.1197 25.457 -1.81092 112.96 39.1926 22.3508 9.04954 19.4492 -36.8261 -177.393 53.112 96.0007 -94.8005 -23.0405 -1.71499 126.246 -32.8526 10.8429 -113.103 -6.27533 17.3549 0.0599451 5.52934 -90.4451 15.8106 -0.105908 -0.880289 4.13941 -0.144557 -0.874781 -18.3938 0.163513 -0.871427 1.61882 0.163538 -0.871431 72.297 -39.6576 -133.11 36.6127 22.71 0.965012 -26.5843 -21.603 -54.5471 15.0588 10.8069 64.0248 -127.214 -66.3992 36.4162 -15.146 -20.2944 32.1165 24.203 22.5429 -29.7248 -9.62005 -0.0768378 -4.58601 -79.3272 17.8898 12.7028 100.569 35.5103 6.86266 
-295.786 65.6321 338.333 -92.8112 -34.384 -88.4917 -171.614 40.0161 94.9447 -97.7805 27.1072 -1.79004 110.019 37.6416 23.246 14.8625 19.4719 -48.6655 -177.986 53.969 96.7016 -94.9255 -28.5137 -1.68292 124.995 -36.2573 7.80556 -116.699 -30.0277 21.8852 0.0670141 5.53158 -90.4917 15.8091 -0.115513 -0.972797 4.13781 -0.158186 -0.966782 -18.3945 0.182179 -0.962543 1.61814 0.182186 -0.962547 72.1895 -39.0193 -133.676 36.6682 23.5359 2.807 -27.3261 -20.8773 -56.5958 15.6901 11.1982 63.7953 -127.204 -66.159 36.3011 -15.0926 -19.0176 31.6941 23.6588 22.8228 -30.1718 -13.5992 -0.0303433 -4.9801 -79.3361 17.8798 12.2546 100.797 35.5723 7.12217 
-296.695 65.7151 339.605 -92.8764 -34.6605 -87.9537 -173.3 42.801 96.7041 -97.1433 28.774 -1.74362 106.58 35.6509 24.2198 21.955 17.1713 -61.4007 -178.893 55.1136 97.78 -95.3291 -36.4568 -1.7033 120.875 -40.699 1.21133 -104.107 -60.4928 36.3416 0.0755049 5.53499 -90.5448 15.802 -0.125367 -1.07811 4.13066 -0.172696 -1.07155 -18.401 0.204418 -1.06595 1.61167 0.20442 -1.06594 72.08 -38.3252 -134.287 36.6976 24.475 4.89695 -28.1382 -20.0503 -58.9134 16.3959 11.6228 63.4961 -127.169 -65.8563 36.1827 -15.0024 -17.5656 31.2193 23.1183 23.2903 -30.7557 -18.2464 0.0834238 -5.61861 -79.3207 17.8636 11.7165 101.084 35.6122 7.40236 
-297.711 65.7606 341.01 -92.9476 -34.9743 -87.3393 -175.378 45.7168 98.8191 -96.1871 29.2274 -1.64407 103.508 32.9775 23.8296 28.7605 12.5033 -72.6292 179.835 56.5304 99.2849 -96.1972 -47.814 -1.93827 111.998 -45.5648 -11.2247 -14.1951 -72.4356 124.024 0.0854421 5.5399 -90.6022 15.7918 -0.13453 -1.19246 4.12037 -0.186898 -1.18539 -18.4105 0.230032 -1.17778 1.60215 0.230048 -1.17778 71.9751 -37.6102 -134.913 36.6902 25.4952 7.16573 -28.9899 -19.1477 -61.4249 17.1533 12.0602 63.1177 -127.098 -65.4854 36.0698 -14.8646 -15.9818 30.707 22.6089 23.9662 -31.4836 -23.4415 0.317578 -6.56732 -79.2698 17.8394 11.0901 101.433 35.6134 7.68686 
-298.821 65.7411 342.527 -93.0227 -35.3215 -86.6557 -177.872 48.619 101.308 -94.8067 30.0715 -1.51066 99.7728 30.0951 23.9481 34.2338 6.53686 -80.9366 178.149 58.1724 101.289 -98.158 -62.8975 -3.03144 97.088 -48.6541 -31.1401 23.4566 -50.1662 157.672 0.0969678 5.54636 -90.662 15.7785 -0.141963 -1.31165 4.10686 -0.199531 -1.30414 -18.4231 0.258782 -1.29368 1.58955 0.25878 -1.29369 71.8781 -36.9076 -135.527 36.6403 26.5641 9.5439 -29.8572 -18.195 -64.0589 17.942 12.4917 62.6496 -126.983 -65.0413 35.9687 -14.6685 -14.3094 30.1724 22.1389 24.8418 -32.3511 -29.0095 0.735914 -7.85988 -79.1742 17.805 10.3758 101.849 35.5586 7.95814 
-300.016 65.6438 344.141 -93.0993 -35.6986 -85.9098 179.214 51.3625 104.171 -92.9645 30.9827 -1.32997 95.7097 26.9567 24.126 38.3115 0.21579 -86.1287 176.009 59.9429 103.874 -105.937 -79.9244 -9.74658 80.2243 -47.3046 -54.3507 32.0519 -31.9087 162.027 0.109666 5.55437 -90.7214 15.762 -0.146325 -1.43082 4.0903 -0.209365 -1.42299 -18.4387 0.290253 -1.40871 1.57395 0.290262 -1.40871 71.7891 -36.2486 -136.108 36.5483 27.6514 11.9666 -30.7245 -17.2147 -66.7509 18.7452 12.9008 62.0821 -126.816 -64.5195 35.8848 -14.4035 -12.5873 29.6307 21.6978 25.8764 -33.3407 -34.7253 1.39248 -9.47697 -79.0261 17.7599 9.57301 102.331 35.431 8.19873 
